<svg id="Capa_1" enable-background="new 0 0 512 512" height="512" viewBox="0 0 512 512" width="512" xmlns="http://www.w3.org/2000/svg"><g><circle cx="256" cy="91" r="60"/><path d="m497 451h-79.56c54.056-44.051 74.981-71.168 54.639-101.323-18.574-27.524-60.264-11.836-93.765.776-13.095 4.951-27.949 10.547-34.306 10.547-23.494 0-30.229-18.322-30.132-42.085 0-15.41 2.9-46.919 5.669-59.106 12.393 5.64 30.63 11.191 54.463 11.191 76.04 0 133.155-68.672 135.513-72.231 4.102-6.211 3.018-14.517-2.549-19.468-5.566-4.937-13.931-5.083-19.644-.264-26.792 22.559-50.581 33.53-70.664 33.53-17.329 0-35.508-13.257-54.771-27.305-23.1-16.845-46.992-34.262-75.893-34.262h-60c-28.813 0-53.188 17.373-76.772 34.175-19.775 14.077-38.452 27.393-55.869 27.393-20.083 0-41.898-10.972-68.705-33.53-5.684-4.819-14.063-4.673-19.629.264-5.566 4.966-6.65 13.257-2.534 19.468 2.343 3.558 57.484 72.23 133.509 72.23 23.833 0 42.07-5.537 54.478-11.191 2.754 12.231 5.654 43.887 5.654 59.678.099 23.464-6.956 41.513-30.132 41.513-6.343 0-21.196-5.596-34.292-10.547-33.501-12.612-75.161-28.315-93.765-.776-19.396 28.753 2.304 58.674 54.621 101.323h-77.564c-8.291 0-15 6.709-15 15s6.709 15 15 15h482c8.291 0 15-6.709 15-15s-6.709-15-15-15z"/></g></svg>